<svg xmlns="http://www.w3.org/2000/svg" viewBox="0 0 36 36" fill="none">
  <defs>
    <linearGradient id="favGrad" x1="0%" y1="0%" x2="100%" y2="100%">
      <stop offset="0%" stop-color="#e4ff36"/>
      <stop offset="100%" stop-color="#9dcf00"/>
    </linearGradient>
  </defs>
  <rect width="36" height="36" rx="8" fill="#14161a"/>
  <!-- Corner notch -->
  <path d="M1 9V6C1 3.23858 3.23858 1 6 1H9" stroke="#d4ff00" stroke-width="2" stroke-linecap="round"/>
  <!-- V wings -->
  <path d="M8 10.5L18 26.5L15 26.5L5.5 10.5H8Z" fill="url(#favGrad)"/>
  <path d="M28 10.5L18 26.5L21 26.5L30.5 10.5H28Z" fill="url(#favGrad)"/>
  <!-- Bell -->
  <path d="M18 9C16.3431 9 15 10.3431 15 12V16.5L13.5 18H22.5L21 16.5V12C21 10.3431 19.6569 9 18 9Z" fill="#FFFFFF"/>
  <circle cx="18" cy="20.5" r="1.5" fill="#d4ff00"/>
  <!-- .rem Dot -->
  <circle cx="28.5" cy="7.5" r="2.8" fill="#d4ff00"/>
</svg>
